<svg width="36" height="36" viewBox="0 0 36 36" fill="none" xmlns="http://www.w3.org/2000/svg">
<rect width="36" height="36" rx="18" fill="#E1DCFF"/>
<path fill-rule="evenodd" clip-rule="evenodd" d="M22.5827 14.3333C22.5827 16.8646 20.5306 18.9167 17.9993 18.9167C15.4681 18.9167 13.416 16.8646 13.416 14.3333C13.416 11.8021 15.4681 9.75 17.9993 9.75C20.5306 9.75 22.5827 11.8021 22.5827 14.3333ZM21.666 14.3333C21.666 16.3584 20.0244 18 17.9993 18C15.9743 18 14.3327 16.3584 14.3327 14.3333C14.3327 12.3083 15.9743 10.6667 17.9993 10.6667C20.0244 10.6667 21.666 12.3083 21.666 14.3333Z" fill="#2F1E91" stroke="#2F1E91" stroke-width="0.3"/>
<path fill-rule="evenodd" clip-rule="evenodd" d="M15.2106 20.224C15.2123 20.2273 15.214 20.2307 15.2157 20.234C15.2274 20.2574 15.2388 20.28 15.25 20.3012H17.1126C17.5283 20.3011 17.7358 20.3012 17.9436 20.3012H17.9549C18.1584 20.3013 18.3658 20.3013 18.7723 20.3012H20.6351C20.7397 20.1025 20.9779 19.7853 21.2083 19.8378C21.7261 19.9557 22.2477 20.1201 22.7488 20.3222L22.7641 20.3146L22.7691 20.3246L22.7725 20.3318C24.6587 21.0977 26.25 22.397 26.25 23.7599V26.2487H9.75V23.7599C9.75 22.0296 12.3147 20.4019 14.7917 19.8378C14.9939 19.7917 15.1136 20.0305 15.2106 20.224ZM21.9895 21.0157C21.7927 20.9469 21.5932 20.8846 21.393 20.8294L21.1884 21.2179H18.7723C18.3568 21.218 18.1518 21.2179 17.9494 21.2179C17.7422 21.2178 17.5376 21.2178 17.1129 21.2179H14.6967L14.5069 20.8576C14.4518 20.8735 14.3967 20.8899 14.3417 20.9068C14.3387 20.937 14.3363 20.9711 14.3348 21.0094C14.3289 21.1675 14.3407 21.355 14.3667 21.5462C14.3927 21.7367 14.4314 21.9196 14.4744 22.067C14.4812 22.0904 14.488 22.1124 14.4947 22.133C15.1781 22.213 15.7083 22.7939 15.7083 23.4987C15.7083 24.2581 15.0927 24.8737 14.3333 24.8737C13.5739 24.8737 12.9583 24.2581 12.9583 23.4987C12.9583 23.0097 13.2136 22.5803 13.5982 22.3365L13.5944 22.3236C13.5371 22.1273 13.4898 21.8995 13.4585 21.67C13.4395 21.5307 13.4258 21.3865 13.4199 21.2446C12.8531 21.4865 12.3251 21.7789 11.8823 22.102C11.0011 22.7449 10.6667 23.346 10.6667 23.7599V25.332H25.3333V23.7599C25.3333 23.346 24.9989 22.7449 24.1177 22.102C23.7582 21.8398 23.3427 21.5977 22.8958 21.3865C22.8886 21.4818 22.8783 21.577 22.8656 21.67C22.8444 21.8251 22.816 21.9794 22.7821 22.1237H23.0417C23.2153 22.1237 23.374 22.2218 23.4516 22.3771L23.9099 23.2937C23.9418 23.3573 23.9583 23.4276 23.9583 23.4987V24.4154C23.9583 24.6685 23.7531 24.8737 23.5 24.8737H22.5833V23.957H23.0417V23.6069L22.7584 23.0404H21.4916L21.2083 23.6069V23.957H21.6667V24.8737H20.75C20.4969 24.8737 20.2917 24.6685 20.2917 24.4154V23.4987C20.2917 23.4276 20.3082 23.3573 20.3401 23.2937L20.7984 22.3771C20.876 22.2218 21.0347 22.1237 21.2083 22.1237H21.8324C21.8381 22.1058 21.8439 22.0869 21.8497 22.067C21.8927 21.9196 21.9314 21.7367 21.9573 21.5462C21.9831 21.3575 21.9949 21.1725 21.9895 21.0157ZM14.7917 23.4987C14.7917 23.7619 14.5801 23.9638 14.3333 23.9638C14.0866 23.9638 13.875 23.7619 13.875 23.4987C13.875 23.2355 14.0866 23.0336 14.3333 23.0336C14.5801 23.0336 14.7917 23.2355 14.7917 23.4987Z" fill="#2F1E91" stroke="#2F1E91" stroke-width="0.3"/>
</svg>
