<svg width="40" height="40" viewBox="0 0 40 40" fill="none" xmlns="http://www.w3.org/2000/svg">
<rect y="20" width="28.2843" height="28.2843" rx="1" transform="rotate(-45 0 20)" fill="white"/>
<path fill-rule="evenodd" clip-rule="evenodd" d="M5.91549 20.7505V19.2388V18.5191V14.0664L0.559429 19.4232C0.493499 19.4868 0.446406 19.5528 0.418151 19.6179C0.393034 19.6799 0.378906 19.7513 0.378906 19.833V20.1469C0.378906 20.3157 0.446406 20.4671 0.553151 20.5739L0.596319 20.6131L0.602599 20.6171L0.603382 20.6186L0.608094 20.6226L0.613586 20.6265H0.614372L0.619081 20.6304L0.619867 20.6312L0.62379 20.6343L0.625361 20.6359L0.629285 20.639L0.630854 20.6406L0.633994 20.643L0.637134 20.6437L0.638703 20.6461L0.642627 20.6485L0.644198 20.65L0.648121 20.6524L0.649693 20.6539L0.652047 20.6555L0.655185 20.6571H0.655971L0.65754 20.6579L0.666175 20.6642L0.667743 20.6649L0.671669 20.6681L0.674024 20.6689L0.677162 20.6704L0.680302 20.672L0.682656 20.6736C0.742308 20.7073 0.806668 20.7309 0.875738 20.7419V20.7426L0.90164 20.7466H0.905564L0.908704 20.7474L0.913413 20.7481H0.914982H0.921262L0.922048 20.7489L0.929112 20.7497L0.93539 20.7505H0.936959L0.943239 20.7513H0.944808H0.949517L0.952657 20.7521H0.956581H0.961292H0.962861L0.968356 20.7528H0.969925H0.976203H0.977774H0.984838H5.91549V20.7505Z" fill="#2E1E91"/>
<path fill-rule="evenodd" clip-rule="evenodd" d="M7.35354 12.8669V17.7991H10.2349C10.3165 17.7991 10.3879 17.785 10.446 17.7598C10.5119 17.7324 10.5786 17.6837 10.6438 17.6186L15.9998 12.2617H10.8274H7.95711C7.78836 12.2617 7.63688 12.3284 7.53013 12.436L7.49952 12.4674L7.4956 12.4736L7.49089 12.4791L7.48618 12.4854L7.48461 12.4862L7.48147 12.4909V12.4917L7.47676 12.4972L7.47362 12.5019L7.47284 12.5027L7.4697 12.5074L7.46813 12.509L7.46499 12.5121L7.46342 12.5145L7.46106 12.5176L7.4595 12.5207L7.45714 12.5231L7.45557 12.527L7.454 12.5286L7.45086 12.5333L7.44929 12.5349L7.44615 12.5396L7.43909 12.5506L7.4383 12.5521L7.43595 12.5553L7.43438 12.5584L7.43202 12.5615L7.43045 12.5647L7.42888 12.567C7.39513 12.6259 7.37159 12.691 7.3606 12.7601H7.35981L7.35668 12.786V12.7892L7.35589 12.7923L7.3551 12.7978L7.35432 12.7994V12.8056L7.35354 12.8064L7.35275 12.8135L7.35196 12.8198V12.8213L7.35118 12.8268V12.8292V12.8339L7.3504 12.837V12.841V12.8449V12.8472L7.34961 12.8527V12.8543V12.8598V12.8614V12.8669H7.35354Z" fill="#ABA5D3"/>
<path fill-rule="evenodd" clip-rule="evenodd" d="M10.8197 22.6906C10.8063 22.6168 10.7804 22.5477 10.7443 22.4865L10.7428 22.4841L10.7412 22.481L10.7396 22.4787L10.7381 22.4755L10.7349 22.4716L10.7333 22.47L10.7302 22.4653V22.4645L10.7263 22.459L10.7231 22.4535L10.72 22.448L10.7192 22.4473L10.7161 22.4441L10.7153 22.4426L10.7129 22.4386L10.7114 22.4371L10.709 22.4339L10.7067 22.4308L10.7059 22.4284L10.7027 22.4253L10.7012 22.4237L10.6988 22.4198L10.6972 22.419L10.6933 22.4143L10.6894 22.4088L10.6886 22.4072L10.6556 22.3719C10.5458 22.262 10.3951 22.1953 10.2263 22.1953H7.3552H6.63546H2.18359L7.53965 27.5522C7.60166 27.6157 7.66837 27.6628 7.73666 27.6926C7.79709 27.7178 7.86695 27.7311 7.94858 27.7311H10.8299V22.7989V22.7918V22.791V22.784V22.7824L10.8291 22.7769V22.7753V22.7706V22.7667V22.7636V22.7589V22.7573L10.8283 22.751V22.7494L10.8275 22.7432V22.7424L10.8267 22.7353H10.826V22.729L10.8252 22.7282L10.8244 22.722L10.8236 22.7204L10.8197 22.6906Z" fill="#0FD197"/>
<path fill-rule="evenodd" clip-rule="evenodd" d="M19.2488 5.90689H20.7605H21.4803H25.9313L20.5761 0.550832C20.5101 0.485687 20.4442 0.437025 20.3783 0.409554C20.3194 0.384437 20.248 0.371094 20.1671 0.371094H19.8532C19.6868 0.371094 19.5353 0.438594 19.4262 0.547693C19.3407 0.631676 19.281 0.74313 19.259 0.867926H19.2583L19.2543 0.898537L19.2535 0.900891L19.2528 0.906386L19.252 0.907955V0.914234H19.2512L19.2504 0.922084V0.928363V0.929932L19.2496 0.935427V0.937781V0.941706L19.2488 0.944845V0.947985V0.952694V0.955049L19.248 0.960542V0.962112V0.968392V0.969176V0.976241V5.90689H19.2488Z" fill="#2E1E91"/>
<path fill-rule="evenodd" clip-rule="evenodd" d="M27.1295 7.3547H22.1973V10.2352C22.1973 10.3169 22.2106 10.3883 22.2365 10.4472C22.2632 10.5131 22.3126 10.5798 22.377 10.6449L27.7338 16.001V10.8286V7.95828C27.7338 7.79188 27.6656 7.63962 27.5573 7.53052C27.4717 7.44496 27.361 7.38531 27.237 7.36334L27.2362 7.36255L27.23 7.36177V7.36098L27.2103 7.35784H27.2064L27.2041 7.35706L27.1986 7.35627L27.197 7.35549H27.1915L27.1907 7.3547L27.1836 7.35392H27.1774H27.1758L27.1703 7.35313H27.1679H27.1632L27.1601 7.35235H27.1562H27.153H27.1499L27.1444 7.35156H27.1428H27.1366H27.1358H27.1295V7.3547Z" fill="#ABA5D3"/>
<path fill-rule="evenodd" clip-rule="evenodd" d="M12.2695 10.8229H17.2018H17.2088H17.2096H17.2159H17.2182L17.2237 10.8221H17.2261H17.23H17.2339L17.2371 10.8213H17.2418H17.2434L17.2496 10.8205L17.2567 10.8197H17.2575L17.2638 10.819L17.2653 10.8182H17.2708L17.2732 10.8174L17.2771 10.8166L17.2802 10.8158H17.2834L17.3022 10.8135L17.303 10.8127L17.3093 10.8119L17.3108 10.8111L17.3148 10.8103L17.3179 10.8088H17.3211L17.325 10.808H17.3273L17.3391 10.8048C17.3956 10.7923 17.449 10.7719 17.4969 10.7452L17.4984 10.7444L17.5024 10.742L17.5079 10.7389L17.5102 10.7373L17.5134 10.7358L17.5173 10.7334L17.5188 10.7318L17.5228 10.7287L17.5243 10.7279L17.5275 10.7256L17.5353 10.7208L17.5408 10.7177L17.5424 10.7169L17.5463 10.7138L17.5479 10.7122L17.5518 10.7091L17.5534 10.7083L17.5557 10.7067L17.5565 10.7059L17.5597 10.7044L17.5628 10.702L17.5659 10.6997L17.5675 10.6981L17.5714 10.6949L17.5722 10.6942L17.5777 10.691L17.5785 10.6902L17.5832 10.6871V10.6863L17.5895 10.6824L17.595 10.6777L17.6005 10.673L17.606 10.6683L17.6115 10.6636L17.6327 10.6439C17.7402 10.5333 17.8077 10.3826 17.8077 10.2146V7.34427V6.62453V2.17188L12.4516 7.52793C12.3865 7.59308 12.3386 7.65979 12.3103 7.72573C12.2852 7.78459 12.2719 7.85602 12.2719 7.93686V10.8229H12.2695Z" fill="#0FD197"/>
<path fill-rule="evenodd" clip-rule="evenodd" d="M34.0859 19.2438V20.7554V21.4752V25.9278L39.4428 20.5702C39.504 20.5106 39.5511 20.4446 39.5809 20.3756C39.6084 20.3167 39.6225 20.2453 39.6225 20.1613V19.8473C39.6225 19.6786 39.5558 19.5271 39.4483 19.4204L39.4051 19.3811L39.3996 19.3772L39.3988 19.3764L39.3933 19.3725L39.3878 19.3686H39.3871L39.3831 19.3646L39.3816 19.3638L39.3768 19.3607L39.3753 19.3591L39.3721 19.356L39.369 19.3544L39.3659 19.3529L39.3627 19.3513L39.3604 19.3489L39.3564 19.3466L39.3557 19.345L39.3447 19.3379L39.3337 19.3309L39.3321 19.3301L39.329 19.327L39.3258 19.3262L39.3227 19.3246L39.3196 19.323L39.3172 19.3215C39.2583 19.2877 39.1932 19.2649 39.1241 19.2532V19.2524L39.0982 19.2485H39.0951H39.0919L39.0864 19.2477L39.0849 19.2469H39.0786L39.0778 19.2461L39.0707 19.2453L39.0645 19.2445H39.0629L39.0574 19.2438H39.055H39.0511L39.048 19.243H39.0441H39.0401H39.0378L39.0323 19.2422H39.0307H39.0244H39.0236H39.0166H34.0859V19.2438Z" fill="#2E1E91"/>
<path fill-rule="evenodd" clip-rule="evenodd" d="M32.6463 27.1283V22.1953H29.7658C29.6841 22.1953 29.6135 22.2094 29.5538 22.2346C29.4887 22.262 29.4212 22.3099 29.3568 22.3758L24 27.7319H29.1732H32.0435C32.2099 27.7319 32.3614 27.6644 32.4705 27.5553C32.5568 27.4721 32.6165 27.3614 32.6384 27.2358H32.6392L32.6432 27.2099V27.2068L32.6439 27.2037V27.199L32.6447 27.1974V27.1911L32.6455 27.1903L32.6463 27.1833L32.6471 27.177V27.1754L32.6479 27.1699V27.1676V27.1636L32.6487 27.1605V27.1566V27.1526V27.1503L32.6494 27.1448V27.1424V27.1369V27.1354V27.1283H32.6463Z" fill="#ABA5D3"/>
<path fill-rule="evenodd" clip-rule="evenodd" d="M29.1738 12.2617V17.1947V17.2018V17.2026V17.2096V17.2112L29.1746 17.2167V17.2191V17.223V17.2261L29.1754 17.2293V17.2332V17.2363L29.1762 17.2418V17.2434L29.177 17.2497V17.2505L29.1778 17.2575H29.1785V17.2638L29.1793 17.2646V17.2709L29.1801 17.2724C29.1982 17.4098 29.261 17.5322 29.352 17.6225C29.4603 17.7316 29.6118 17.7991 29.779 17.7991H32.6501H33.3698H37.8225L32.4656 12.4422C32.4068 12.381 32.3401 12.3339 32.271 12.3041C32.2121 12.2766 32.1407 12.2633 32.0567 12.2633H29.1738V12.2617Z" fill="#0FD197"/>
<path fill-rule="evenodd" clip-rule="evenodd" d="M20.7556 34.0859H19.2423H18.5249H14.0723L19.4283 39.4428C19.4895 39.5071 19.5578 39.5535 19.6261 39.5833C19.685 39.6084 19.7564 39.6217 19.8372 39.6217H20.1512C20.3184 39.6217 20.4707 39.5542 20.5782 39.4459C20.6645 39.3619 20.7234 39.2513 20.7461 39.1265L20.7501 39.1006V39.0966L20.7509 39.0935L20.7516 39.0888L20.7524 39.0872V39.0817L20.754 39.0739L20.7548 39.0668V39.0653L20.7556 39.0598V39.0574V39.0535L20.7564 39.0503V39.0464V39.0417V39.0394L20.7571 39.0339V39.0323V39.0268V39.0252V39.0182V34.0859H20.7556Z" fill="#2E1E91"/>
<path fill-rule="evenodd" clip-rule="evenodd" d="M12.8723 32.6463H17.8093L17.8085 29.7658C17.8053 29.6841 17.792 29.6127 17.7669 29.5538C17.7394 29.4879 17.6907 29.4212 17.6256 29.3561L12.2695 24V29.1716V32.0427C12.2695 32.2115 12.3362 32.363 12.4438 32.4705L12.4752 32.5003L12.4807 32.505L12.4862 32.5097L12.4924 32.5144L12.4932 32.516L12.4979 32.5191L12.5042 32.5239H12.505L12.5089 32.527L12.5105 32.5278L12.5144 32.5309L12.516 32.5325L12.5191 32.5348L12.5223 32.5364L12.534 32.5443L12.5356 32.545L12.5458 32.5521H12.5466C12.6125 32.5937 12.6871 32.6235 12.7664 32.6377V32.6384L12.7962 32.6424L12.7985 32.6432L12.804 32.6439L12.8056 32.6447H12.8119V32.6455L12.8197 32.6463L12.826 32.6471H12.8276L12.8331 32.6479H12.8354H12.8394H12.8425H12.8456H12.8503H12.8527L12.8582 32.6487H12.8598H12.866H12.8668H12.8723V32.6463Z" fill="#ABA5D3"/>
<path fill-rule="evenodd" clip-rule="evenodd" d="M27.7331 29.1641H22.8008H22.793H22.7922H22.7859H22.7844L22.7789 29.1648H22.7765H22.7726H22.7687L22.7655 29.1656H22.7608H22.7585L22.753 29.1664H22.7514L22.7451 29.1672H22.7443L22.7373 29.168V29.1688H22.7302L22.7294 29.1696L22.7231 29.1703L22.7208 29.1711L22.691 29.1743V29.1751C22.6164 29.1884 22.5473 29.2143 22.4869 29.2504L22.4853 29.252L22.4822 29.2535L22.479 29.2559L22.4767 29.2575L22.4728 29.2606L22.4712 29.2614L22.4673 29.2645H22.4665L22.461 29.2685L22.4555 29.2716L22.4547 29.2724L22.45 29.2755L22.4492 29.2771L22.4453 29.2794L22.4437 29.281L22.4406 29.2834L22.439 29.2849H22.4382L22.4351 29.2873L22.4327 29.2889L22.4304 29.2904L22.4265 29.2936L22.4257 29.2951L22.4217 29.2975L22.4202 29.2983L22.4163 29.3022L22.41 29.3061L22.4092 29.3077L22.3739 29.3399C22.264 29.4505 22.1973 29.6012 22.1973 29.77V32.6403V33.3608V37.8127L27.5533 32.4567C27.6193 32.3907 27.6663 32.324 27.6946 32.2589C27.7197 32.2 27.7338 32.1286 27.7338 32.0477V29.1641H27.7331Z" fill="#0FD197"/>
</svg>
